17:06:35.930	From Port 1	Note On	1	D♯3	65
17:06:36.009	From Port 1	Note On	1	D3	51
17:06:36.053	From Port 1	Note Off	1	D♯3	0
17:06:36.122	From Port 1	Note Off	1	D3	0
17:06:36.134	From Port 1	Note On	1	C3	60
17:06:36.272	From Port 1	Note Off	1	C3	0
17:06:36.287	From Port 1	Note On	1	A♯2	58
17:06:36.466	From Port 1	Note On	1	C3	61
17:06:36.607	From Port 1	Note On	1	D3	59
17:06:36.629	From Port 1	Note Off	1	C3	0
17:06:36.701	From Port 1	Note Off	1	A♯2	0
17:06:36.804	From Port 1	Note On	1	A♯2	64
17:06:37.008	From Port 1	Note On	1	C3	66
17:06:37.019	From Port 1	Note Off	1	D♯2	0
17:06:37.024	From Port 1	Note Off	1	G♯1	0
17:06:37.221	From Port 1	Note On	1	G2	67
17:06:37.499	From Port 1	Note On	1	F1	58
17:06:37.503	From Port 1	Note On	1	C2	63
17:06:37.564	From Port 1	Note Off	1	G2	0
17:06:37.608	From Port 1	Note Off	1	C3	0
17:06:37.610	From Port 1	Note Off	1	D3	0
17:06:37.629	From Port 1	Note Off	1	A♯2	0
17:06:37.765	From Port 1	Note On	1	F2	61
17:06:37.887	From Port 1	Note On	1	G2	61
17:06:37.894	From Port 1	Note Off	1	F2	0
17:06:37.957	From Port 1	Note Off	1	G2	0
17:06:37.980	From Port 1	Note On	1	A♯2	62
17:06:38.017	From Port 1	Note Off	1	A♯2	0
17:06:38.124	From Port 1	Note On	1	C3	61
17:06:38.255	From Port 1	Note On	1	D3	52
17:06:38.259	From Port 1	Note Off	1	C3	0
17:06:38.393	From Port 1	Note Off	1	D3	0
17:06:38.407	From Port 1	Note On	1	E3	37
17:06:38.531	From Port 1	Note Off	1	E3	0
17:06:38.554	From Port 1	Note On	1	F3	51
17:06:38.739	From Port 1	Note Off	1	F3	0
17:06:38.754	From Port 1	Note On	1	G3	27
17:06:38.899	From Port 1	Note Off	1	G3	0
17:06:38.907	From Port 1	Note On	1	E3	10
17:06:39.060	From Port 1	Note On	1	F3	55
17:06:39.089	From Port 1	Note Off	1	E3	0
17:06:39.268	From Port 1	Note On	1	D3	17
17:06:39.486	From Port 1	Note On	1	E3	51
17:06:39.540	From Port 1	Note Off	1	D3	0
17:06:39.855	From Port 1	Note Off	1	C2	0
17:06:40.017	From Port 1	Note On	1	C3	3
17:06:40.078	From Port 1	Note Off	1	F1	0
17:06:40.418	From Port 1	Note On	1	C2	41
17:06:40.441	From Port 1	Note On	1	F1	21
17:06:40.450	From Port 1	Note Off	1	F3	0
17:06:40.510	From Port 1	Note Off	1	E3	0
17:06:40.584	From Port 1	Note Off	1	C3	0
17:06:40.683	From Port 1	Note On	1	E3	51
17:06:40.851	From Port 1	Note Off	1	E3	0
17:06:40.868	From Port 1	Note On	1	F3	57
17:06:41.070	From Port 1	Note Off	1	F3	0
17:06:41.088	From Port 1	Note On	1	G3	34
17:06:41.318	From Port 1	Note On	1	E3	44
17:06:41.318	From Port 1	Note Off	1	G3	0
17:06:41.527	From Port 1	Note On	1	F3	47
17:06:41.546	From Port 1	Note Off	1	E3	0
17:06:41.767	From Port 1	Note On	1	D3	3
17:06:41.968	From Port 1	Note Off	1	D3	0
17:06:41.999	From Port 1	Note On	1	E3	37
17:06:42.364	From Port 1	Note Off	1	F1	0
17:06:42.390	From Port 1	Note Off	1	C2	0
17:06:42.488	From Port 1	Note Off	1	E3	0
17:06:42.492	From Port 1	Note Off	1	F3	0
17:06:42.521	From Port 1	Note On	1	C2	44
17:06:42.553	From Port 1	Note On	1	F1	13
17:06:42.745	From Port 1	Note On	1	E3	65
17:06:42.933	From Port 1	Note Off	1	E3	0
17:06:42.955	From Port 1	Note On	1	F3	61
17:06:43.133	From Port 1	Note Off	1	F3	0
17:06:43.157	From Port 1	Note On	1	G3	58
17:06:43.390	From Port 1	Note On	1	E3	57
17:06:43.418	From Port 1	Note Off	1	G3	0
17:06:43.595	From Port 1	Note On	1	F3	57
17:06:43.620	From Port 1	Note Off	1	E3	0
17:06:43.843	From Port 1	Note On	1	D3	21
17:06:44.101	From Port 1	Note Off	1	D3	0
17:06:44.114	From Port 1	Note On	1	E3	34
17:06:44.116	From Port 1	Note Off	1	F3	0
17:06:44.465	From Port 1	Note On	1	C3	21
17:06:44.643	From Port 1	Note Off	1	F1	0
17:06:44.668	From Port 1	Note Off	1	C2	0
17:06:44.867	From Port 1	Note Off	1	C3	0
17:06:44.871	From Port 1	Note On	1	C2	37
17:06:44.873	From Port 1	Note On	1	F1	26
17:06:44.901	From Port 1	Note Off	1	E3	0
17:06:45.133	From Port 1	Note On	1	E3	68
17:06:45.281	From Port 1	Note Off	1	E3	0
17:06:45.327	From Port 1	Note On	1	F3	48
17:06:45.486	From Port 1	Note Off	1	F3	0
17:06:45.526	From Port 1	Note On	1	G3	58
17:06:45.751	From Port 1	Note On	1	E3	37
17:06:45.752	From Port 1	Note Off	1	G3	0
17:06:45.966	From Port 1	Note On	1	F3	55
17:06:45.967	From Port 1	Note Off	1	E3	0
17:06:46.208	From Port 1	Note On	1	D3	34
17:06:46.458	From Port 1	Note Off	1	D3	0
17:06:46.499	From Port 1	Note On	1	E3	37
17:06:46.634	From Port 1	Note Off	1	F3	0
17:06:46.794	From Port 1	Note On	1	C3	18
17:06:46.963	From Port 1	Note Off	1	F1	0
17:06:46.994	From Port 1	Note Off	1	C2	0
17:06:47.141	From Port 1	Note Off	1	C3	0
17:06:47.144	From Port 1	Note Off	1	E3	0
17:06:47.180	From Port 1	Note On	1	C2	31
17:06:47.197	From Port 1	Note On	1	F1	3
17:06:47.394	From Port 1	Note On	1	E3	65
17:06:47.582	From Port 1	Note Off	1	E3	0
17:06:47.607	From Port 1	Note On	1	F3	61
17:06:47.803	From Port 1	Note Off	1	F3	0
17:06:47.855	From Port 1	Note On	1	G3	55
17:06:48.059	From Port 1	Note On	1	E3	17
17:06:48.067	From Port 1	Note Off	1	G3	0
17:06:48.250	From Port 1	Note Off	1	E3	0
17:06:48.271	From Port 1	Note On	1	F3	65
17:06:48.519	From Port 1	Note On	1	D3	21
17:06:48.747	From Port 1	Note Off	1	D3	0
17:06:48.791	From Port 1	Note On	1	E3	51
17:06:48.927	From Port 1	Note Off	1	C2	0
17:06:49.044	From Port 1	Note Off	1	F1	0
17:06:49.131	From Port 1	Note Off	1	F3	0
17:06:49.135	From Port 1	Note Off	1	E3	0
17:06:49.139	From Port 1	Note On	1	C3	55
17:06:49.464	From Port 1	Note Off	1	C3	0
17:06:49.504	From Port 1	Note On	1	A♯3	74
17:06:49.869	From Port 1	Note Off	1	A♯3	0
17:06:49.888	From Port 1	Note On	1	A3	63
17:06:49.953	From Port 1	Note Off	1	A3	0
17:06:49.965	From Port 1	Note On	1	A♯3	55
17:06:50.044	From Port 1	Note On	1	A3	26
17:06:50.056	From Port 1	Note Off	1	A♯3	0
17:06:50.133	From Port 1	Note On	1	G3	50
17:06:50.136	From Port 1	Note Off	1	A3	0
17:06:50.276	From Port 1	Note On	1	F2	22
17:06:50.286	From Port 1	Note Off	1	G3	0
17:06:50.307	From Port 1	Note On	1	C3	4
17:06:50.353	From Port 1	Note On	1	F3	71
17:06:50.498	From Port 1	Note Off	1	F3	0
17:06:50.522	From Port 1	Note On	1	G3	40
17:06:50.668	From Port 1	Note Off	1	G3	0
17:06:50.700	From Port 1	Note On	1	A3	37
17:06:50.759	From Port 1	Note Off	1	C3	0
17:06:50.807	From Port 1	Note Off	1	F2	0
17:06:50.867	From Port 1	Note On	1	F3	55
17:06:51.071	From Port 1	Note On	1	G3	31
17:06:51.105	From Port 1	Note Off	1	F3	0
17:06:51.235	From Port 1	Note Off	1	A3	0
17:06:51.288	From Port 1	Note On	1	E3	44
17:06:51.306	From Port 1	Note On	1	G2	34
17:06:51.312	From Port 1	Note On	1	C2	3
17:06:51.483	From Port 1	Note Off	1	G3	0
17:06:51.681	From Port 1	Note Off	1	E3	0
17:06:51.700	From Port 1	Note On	1	C3	64
17:06:51.972	From Port 1	Note Off	1	G2	0
17:06:51.980	From Port 1	Note On	1	E3	51
17:06:52.082	From Port 1	Note Off	1	C2	0
17:06:52.267	From Port 1	Note On	1	G2	61
17:06:52.672	From Port 1	Note On	1	A♯1	52
17:06:53.057	From Port 1	Note Off	1	A♯1	0
17:06:53.121	From Port 1	Note On	1	C2	58
17:06:53.624	From Port 1	Note Off	1	C2	0
17:06:53.630	From Port 1	Note Off	1	C3	0
17:06:53.639	From Port 1	Note On	1	D3	57
17:06:53.644	From Port 1	Note On	1	G♯1	41
17:06:53.708	From Port 1	Note Off	1	E3	0
17:06:54.077	From Port 1	Note On	1	D♯2	64
17:06:54.172	From Port 1	Note On	1	D♯3	50
17:06:54.231	From Port 1	Note Off	1	D3	0
17:06:54.549	From Port 1	Note On	1	D3	59
17:06:54.590	From Port 1	Note Off	1	D♯2	0
17:06:54.605	From Port 1	Note Off	1	D♯3	0
17:06:54.692	From Port 1	Note Off	1	G♯1	0
17:06:54.928	From Port 1	Note Off	1	D3	0
17:06:54.978	From Port 1	Note On	1	F1	4
17:06:55.113	From Port 1	Note Off	1	G2	0
17:06:55.290	From Port 1	Note On	1	C3	47
17:06:55.411	From Port 1	Note On	1	C2	21
17:06:55.977	From Port 1	Note Off	1	C3	0
17:06:56.040	From Port 1	Note On	1	C3	34
17:06:56.106	From Port 1	Note On	1	B2	61
17:06:56.111	From Port 1	Note Off	1	C3	0
17:06:56.208	From Port 1	Note On	1	A2	55
17:06:56.215	From Port 1	Note Off	1	B2	0
17:06:56.409	From Port 1	Note On	1	B2	41
17:06:56.596	From Port 1	Note Off	1	B2	0
17:06:56.617	From Port 1	Note On	1	C3	47
17:06:56.842	From Port 1	Note On	1	D3	44
17:06:56.847	From Port 1	Note Off	1	C3	0
17:06:57.228	From Port 1	Note On	1	B2	21
17:06:57.532	From Port 1	Note On	1	C3	47
17:06:57.615	From Port 1	Note Off	1	A2	0
17:06:57.866	From Port 1	Note Off	1	B2	0
17:06:57.905	From Port 1	Note On	1	G2	32
17:06:57.932	From Port 1	Note Off	1	C2	0
17:06:58.272	From Port 1	Note On	1	A2	65
17:06:58.285	From Port 1	Note Off	1	C3	0
17:06:58.307	From Port 1	Note Off	1	G2	0
17:06:58.313	From Port 1	Note On	1	C2	37
17:06:58.648	From Port 1	Note On	1	F2	25
17:06:58.729	From Port 1	Note Off	1	A2	0
17:06:58.832	From Port 1	Note Off	1	D3	0
17:06:58.993	From Port 1	Note On	1	G2	44
17:06:59.119	From Port 1	Note Off	1	F2	0
17:06:59.360	From Port 1	Note On	1	E2	51
17:06:59.952	From Port 1	Note Off	1	F1	0
17:07:00.334	From Port 1	Note On	1	C1	71
17:07:01.390	From Port 1	Note Off	1	G2	0
17:07:01.403	From Port 1	Note Off	1	E2	0
17:07:01.572	From Port 1	Note On	1	G2	71
17:07:01.574	From Port 1	Note On	1	C3	71
17:07:01.578	From Port 1	Note On	1	E2	68
17:07:01.783	From Port 1	Note Off	1	E2	0
17:07:01.864	From Port 1	Note Off	1	G2	0
17:07:01.888	From Port 1	Note Off	1	C3	0
17:07:01.933	From Port 1	Note On	1	A2	71
17:07:01.937	From Port 1	Note On	1	F2	68
17:07:02.123	From Port 1	Note Off	1	C2	0
17:07:02.409	From Port 1	Note Off	1	F2	0
17:07:02.435	From Port 1	Note On	1	C2	55
17:07:02.461	From Port 1	Note Off	1	A2	0
17:07:02.785	From Port 1	Note On	1	C3	44
17:07:02.793	From Port 1	Note On	1	G2	51
17:07:02.799	From Port 1	Note On	1	E2	47
17:07:03.099	From Port 1	Note Off	1	C2	0
17:07:03.172	From Port 1	Note On	1	G1	52
17:07:03.173	From Port 1	Note Off	1	C1	0
17:07:03.640	From Port 1	Note On	1	C2	44
17:07:04.043	From Port 1	Note Off	1	G1	0
17:07:04.091	From Port 1	Note On	1	C1	61
17:07:04.151	From Port 1	Note Off	1	C2	0
17:07:04.547	From Port 1	Note Off	1	E2	0
17:07:04.554	From Port 1	Note On	1	C2	34
17:07:04.587	From Port 1	Note Off	1	C3	0
17:07:04.592	From Port 1	Note Off	1	G2	0
17:07:04.776	From Port 1	Note On	1	G2	79
17:07:04.776	From Port 1	Note On	1	C3	71
17:07:04.782	From Port 1	Note On	1	E2	75
17:07:04.971	From Port 1	Note Off	1	E2	0
17:07:05.010	From Port 1	Note Off	1	G2	0
17:07:05.016	From Port 1	Note Off	1	C3	0
17:07:05.105	From Port 1	Note On	1	C3	75
17:07:05.109	From Port 1	Note On	1	F2	71
17:07:05.111	From Port 1	Note On	1	A2	71
17:07:05.190	From Port 1	Note Off	1	C2	0
17:07:05.435	From Port 1	Note On	1	C2	65
17:07:05.482	From Port 1	Note Off	1	F2	0
17:07:05.610	From Port 1	Note Off	1	A2	0
17:07:05.646	From Port 1	Note Off	1	C3	0
17:07:05.810	From Port 1	Note On	1	C3	71
17:07:05.817	From Port 1	Note On	1	G2	68
17:07:05.823	From Port 1	Note On	1	E2	61
17:07:05.958	From Port 1	Note Off	1	C2	0
17:07:05.960	From Port 1	Note Off	1	C1	0
17:07:06.140	From Port 1	Note On	1	G1	55
17:07:06.469	From Port 1	Note Off	1	G1	0
17:07:06.532	From Port 1	Note On	1	C1	51
17:07:07.052	From Port 1	Note On	1	C2	3
17:07:07.217	From Port 1	Note Off	1	E2	0
17:07:07.245	From Port 1	Note Off	1	C3	0
17:07:07.254	From Port 1	Note Off	1	G2	0
17:07:07.404	From Port 1	Note On	1	C3	68
17:07:07.408	From Port 1	Note On	1	E2	75
17:07:07.409	From Port 1	Note On	1	G2	79
17:07:07.594	From Port 1	Note Off	1	E2	0
17:07:07.648	From Port 1	Note Off	1	G2	0
17:07:07.655	From Port 1	Note Off	1	C3	0
17:07:07.752	From Port 1	Note On	1	C3	68
17:07:07.754	From Port 1	Note On	1	A2	79
17:07:07.758	From Port 1	Note On	1	F2	79
17:07:08.043	From Port 1	Note Off	1	F2	0
17:07:08.068	From Port 1	Note Off	1	C3	0
17:07:08.100	From Port 1	Note On	1	G1	71
17:07:08.102	From Port 1	Note Off	1	C1	0
17:07:08.119	From Port 1	Note Off	1	A2	0
17:07:08.124	From Port 1	Note Off	1	C2	0
17:07:08.471	From Port 1	Note On	1	G2	77
17:07:08.472	From Port 1	Note On	1	C3	77
17:07:08.477	From Port 1	Note On	1	E2	80
17:07:08.589	From Port 1	Note Off	1	E2	0
17:07:08.607	From Port 1	Note Off	1	G2	0
17:07:08.615	From Port 1	Note Off	1	C3	0
17:07:08.681	From Port 1	Note Off	1	G1	0
17:07:08.861	From Port 1	Note On	1	D3	79
17:07:08.862	From Port 1	Note On	1	A2	79
17:07:08.866	From Port 1	Note On	1	F2	79
17:07:08.867	From Port 1	Note On	1	D1	65
17:07:09.436	From Port 1	Note On	1	D2	18
17:07:09.476	From Port 1	Note Off	1	D3	0
17:07:09.488	From Port 1	Note Off	1	F2	0
17:07:09.513	From Port 1	Note Off	1	A2	0
17:07:09.664	From Port 1	Note On	1	G2	71
17:07:09.669	From Port 1	Note On	1	E2	75
17:07:09.671	From Port 1	Note On	1	C3	71
17:07:09.907	From Port 1	Note Off	1	E2	0
17:07:09.927	From Port 1	Note Off	1	G2	0
17:07:09.948	From Port 1	Note Off	1	C3	0
17:07:10.084	From Port 1	Note On	1	D3	80
17:07:10.085	From Port 1	Note On	1	A2	79
17:07:10.087	From Port 1	Note On	1	F2	74
17:07:10.554	From Port 1	Note Off	1	D1	0
17:07:10.555	From Port 1	Note On	1	A1	59
17:07:10.558	From Port 1	Note Off	1	D2	0
17:07:10.746	From Port 1	Note Off	1	F2	0
17:07:10.830	From Port 1	Note Off	1	A2	0
17:07:10.862	From Port 1	Note Off	1	D3	0
17:07:11.026	From Port 1	Note On	1	A2	81
17:07:11.027	From Port 1	Note On	1	C3	74
17:07:11.030	From Port 1	Note On	1	F2	73
17:07:11.216	From Port 1	Note Off	1	A1	0
17:07:11.286	From Port 1	Note Off	1	F2	0
17:07:11.320	From Port 1	Note Off	1	A2	0
17:07:11.361	From Port 1	Note Off	1	C3	0
17:07:11.545	From Port 1	Note On	1	D♯3	75
17:07:11.545	From Port 1	Note On	1	C3	75
17:07:11.557	From Port 1	Note On	1	A2	64
17:07:11.575	From Port 1	Note On	1	F1	61
17:07:12.009	From Port 1	Note On	1	C2	59
17:07:12.131	From Port 1	Note Off	1	C3	0
17:07:12.133	From Port 1	Note Off	1	A2	0
17:07:12.143	From Port 1	Note Off	1	D♯3	0
17:07:12.367	From Port 1	Note On	1	A♯2	69
17:07:12.369	From Port 1	Note On	1	G2	71
17:07:12.370	From Port 1	Note On	1	D3	75
17:07:12.661	From Port 1	Note Off	1	F1	0
17:07:12.676	From Port 1	Note Off	1	D3	0
17:07:12.682	From Port 1	Note Off	1	G2	0
17:07:12.700	From Port 1	Note Off	1	A♯2	0
17:07:12.816	From Port 1	Note Off	1	C2	0
17:07:12.920	From Port 1	Note On	1	C3	74
17:07:12.936	From Port 1	Note On	1	G2	55
17:07:12.967	From Port 1	Note On	1	E2	34
17:07:12.967	From Port 1	Note On	1	F2	29
17:07:13.102	From Port 1	Note Off	1	F2	0
17:07:13.356	From Port 1	Note On	1	C1	65
17:07:13.781	From Port 1	Note On	1	C2	47
17:07:13.905	From Port 1	Note Off	1	C3	0
17:07:13.915	From Port 1	Note Off	1	E2	0
17:07:13.985	From Port 1	Note Off	1	G2	0
17:07:14.156	From Port 1	Note On	1	G2	55
17:07:14.171	From Port 1	Note On	1	E2	47
17:07:14.266	From Port 1	Note Off	1	C2	0
17:07:14.422	From Port 1	Note Off	1	E2	0
17:07:14.481	From Port 1	Note Off	1	G2	0
17:07:14.530	From Port 1	Note On	1	E2	63
17:07:14.531	From Port 1	Note On	1	A2	65
17:07:14.884	From Port 1	Note On	1	C2	37
17:07:14.943	From Port 1	Note Off	1	C1	0
17:07:15.157	From Port 1	Note Off	1	C2	0
17:07:15.244	From Port 1	Note On	1	G1	3
17:07:15.382	From Port 1	Note Off	1	E2	0
17:07:15.577	From Port 1	Note Off	1	A2	0
17:07:15.581	From Port 1	Note Off	1	G1	0
17:07:15.632	From Port 1	Note On	1	G2	42
17:07:15.633	From Port 1	Note On	1	C1	55
17:07:15.647	From Port 1	Note On	1	E2	44
17:07:16.095	From Port 1	Note On	1	C2	47
17:07:16.186	From Port 1	Note Off	1	E2	0
17:07:16.228	From Port 1	Note Off	1	G2	0
17:07:16.406	From Port 1	Note On	1	G2	75
17:07:16.415	From Port 1	Note On	1	E2	75
17:07:16.587	From Port 1	Note Off	1	E2	0
17:07:16.678	From Port 1	Note Off	1	G2	0
17:07:16.756	From Port 1	Note On	1	A2	91
17:07:16.760	From Port 1	Note On	1	F2	91
17:07:16.829	From Port 1	Note Off	1	C2	0
17:07:16.998	From Port 1	Note Off	1	A2	0
17:07:17.036	From Port 1	Note On	1	G2	91
17:07:17.044	From Port 1	Note On	1	C3	86
17:07:17.255	From Port 1	Note Off	1	C3	0
17:07:17.270	From Port 1	Note On	1	A2	67
17:07:17.292	From Port 1	Note Off	1	G2	0
17:07:17.311	From Port 1	Note Off	1	C1	0
17:07:17.395	From Port 1	Note On	1	C2	26
17:07:17.487	From Port 1	Note On	1	G2	77
17:07:17.510	From Port 1	Note Off	1	F2	0
17:07:17.538	From Port 1	Note Off	1	A2	0
17:07:17.634	From Port 1	Note On	1	G1	34
17:07:17.640	From Port 1	Note Off	1	C2	0
17:07:17.863	From Port 1	Note Off	1	G1	0
17:07:17.892	From Port 1	Note On	1	E2	69
17:07:17.894	From Port 1	Note On	1	C1	68
17:07:18.481	From Port 1	Note On	1	C2	44
17:07:18.510	From Port 1	Note Off	1	E2	0
17:07:18.573	From Port 1	Note Off	1	G2	0
17:07:18.639	From Port 1	Note On	1	G2	61
17:07:18.652	From Port 1	Note On	1	E2	68
17:07:18.904	From Port 1	Note Off	1	E2	0
17:07:18.983	From Port 1	Note Off	1	G2	0
17:07:19.057	From Port 1	Note On	1	A2	80
17:07:19.059	From Port 1	Note On	1	F2	79
17:07:19.405	From Port 1	Note Off	1	F2	0
17:07:19.420	From Port 1	Note On	1	G2	79
17:07:19.425	From Port 1	Note Off	1	A2	0
17:07:19.432	From Port 1	Note On	1	C3	68
17:07:19.703	From Port 1	Note Off	1	G2	0
17:07:19.708	From Port 1	Note On	1	A2	71
17:07:19.715	From Port 1	Note On	1	F2	57
17:07:19.716	From Port 1	Note Off	1	C3	0
17:07:19.835	From Port 1	Note Off	1	C2	0
17:07:20.037	From Port 1	Note Off	1	C1	0
17:07:20.083	From Port 1	Note Off	1	F2	0
17:07:20.086	From Port 1	Note On	1	C2	52
17:07:20.444	From Port 1	Note On	1	C1	71
17:07:20.455	From Port 1	Note Off	1	C2	0
17:07:20.678	From Port 1	Note Off	1	A2	0
17:07:20.844	From Port 1	Note On	1	G2	109
17:07:20.848	From Port 1	Note On	1	E2	127
17:07:20.849	From Port 1	Note On	1	C3	92
17:07:21.181	From Port 1	Note On	1	C2	75
17:07:21.189	From Port 1	Note Off	1	E2	0
17:07:21.205	From Port 1	Note Off	1	G2	0
17:07:21.253	From Port 1	Note Off	1	C3	0
17:07:21.254	From Port 1	Note Off	1	C1	0
17:07:21.338	From Port 1	Note Off	1	C2	0
17:07:21.514	From Port 1	Note On	1	F2	109
17:07:21.516	From Port 1	Note On	1	G♯2	98
17:07:21.537	From Port 1	Note On	1	C♯1	91
17:07:21.538	From Port 1	Note On	1	C♯2	98
17:07:21.539	From Port 1	Note On	1	C♯3	65
17:07:21.539	From Port 1	Note On	1	D3	71
17:07:21.694	From Port 1	Note Off	1	D3	0
17:07:21.755	From Port 1	Note Off	1	C♯1	0
17:07:21.756	From Port 1	Note Off	1	C♯3	0
17:07:21.790	From Port 1	Note Off	1	F2	0
17:07:21.813	From Port 1	Note Off	1	C♯2	0
17:07:21.837	From Port 1	Note Off	1	G♯2	0
17:07:21.975	From Port 1	Note On	1	A2	98
17:07:21.979	From Port 1	Note On	1	D3	91
17:07:21.982	From Port 1	Note On	1	F2	92
17:07:21.983	From Port 1	Note On	1	D2	91
17:07:21.990	From Port 1	Note On	1	D1	92
17:07:22.185	From Port 1	Note Off	1	D2	0
17:07:22.191	From Port 1	Note Off	1	F2	0
17:07:22.217	From Port 1	Note Off	1	D1	0
17:07:22.269	From Port 1	Note Off	1	D3	0
17:07:22.269	From Port 1	Note Off	1	A2	0
17:07:23.297	From Port 1	Note On	1	F♯1	96
17:07:23.298	From Port 1	Note On	1	G1	98
17:07:23.300	From Port 1	Note On	1	F1	88
17:07:23.300	From Port 1	Note On	1	A1	94
17:07:23.303	From Port 1	Note On	1	A♯1	82
17:07:23.306	From Port 1	Note On	1	D1	61
17:07:23.306	From Port 1	Note On	1	E1	71
17:07:23.308	From Port 1	Note On	1	B1	91
17:07:23.310	From Port 1	Note On	1	C2	79
17:07:23.310	From Port 1	Note On	1	G♯1	58
17:07:23.314	From Port 1	Note Off	1	A♯1	0
17:07:23.315	From Port 1	Note On	1	C1	57
17:07:23.316	From Port 1	Note Off	1	F♯1	0
17:07:23.319	From Port 1	Note Off	1	G♯1	0
17:07:23.324	From Port 1	Note Off	1	F1	0
17:07:23.324	From Port 1	Note Off	1	A1	0
17:07:23.326	From Port 1	Note Off	1	B1	0
17:07:23.328	From Port 1	Note Off	1	C2	0
17:07:23.329	From Port 1	Note Off	1	C1	0
17:07:23.330	From Port 1	Note Off	1	E1	0
17:07:23.336	From Port 1	Note Off	1	G1	0
17:07:23.337	From Port 1	Note Off	1	D1	0
17:07:23.412	From Port 1	Note On	1	G♯0	60
17:07:23.439	From Port 1	Note Off	1	G♯0	0
17:07:23.451	From Port 1	Note On	1	F♯1	74
17:07:23.452	From Port 1	Note On	1	G1	57
17:07:23.455	From Port 1	Note On	1	A1	68
17:07:23.459	From Port 1	Note Off	1	F♯1	0
17:07:23.473	From Port 1	Note Off	1	G1	0
17:07:23.473	From Port 1	Note Off	1	A1	0
17:07:23.535	From Port 1	Note On	1	C♯1	87
17:07:23.539	From Port 1	Note On	1	C1	106
17:07:23.540	From Port 1	Note On	1	B0	86
17:07:23.542	From Port 1	Note On	1	G0	77
17:07:23.543	From Port 1	Note On	1	E1	73
17:07:23.545	From Port 1	Note On	1	A0	77
17:07:23.545	From Port 1	Note On	1	A♯0	69
17:07:23.554	From Port 1	Note On	1	F♯0	26
17:07:23.555	From Port 1	Note On	1	D1	67
17:07:23.556	From Port 1	Note Off	1	F♯0	0
17:07:23.568	From Port 1	Note Off	1	D1	0
17:07:23.570	From Port 1	Note Off	1	A0	0
17:07:23.573	From Port 1	Note Off	1	G0	0
17:07:23.575	From Port 1	Note Off	1	E1	0
17:07:23.578	From Port 1	Note Off	1	A♯0	0
17:07:23.578	From Port 1	Note Off	1	B0	0
17:07:23.582	From Port 1	Note Off	1	C1	0
17:07:23.590	From Port 1	Note Off	1	C♯1	0
17:07:23.620	From Port 1	Note On	1	D♯2	115
17:07:23.621	From Port 1	Note On	1	D2	127
17:07:23.626	From Port 1	Note On	1	E2	109
17:07:23.628	From Port 1	Note On	1	B1	88
17:07:23.629	From Port 1	Note On	1	C2	94
17:07:23.634	From Port 1	Note On	1	C♯2	74
17:07:23.638	From Port 1	Note On	1	A1	71
17:07:23.645	From Port 1	Note Off	1	C♯2	0
17:07:23.647	From Port 1	Note Off	1	C2	0
17:07:23.648	From Port 1	Note Off	1	E2	0
17:07:23.650	From Port 1	Note Off	1	B1	0
17:07:23.654	From Port 1	Note Off	1	A1	0
17:07:23.656	From Port 1	Note Off	1	D♯2	0
17:07:23.662	From Port 1	Note Off	1	D2	0
17:07:23.764	From Port 1	Note On	1	E2	102
17:07:23.768	From Port 1	Note On	1	C2	100
17:07:23.768	From Port 1	Note On	1	D2	76
17:07:23.776	From Port 1	Note On	1	B1	64
17:07:23.778	From Port 1	Note On	1	F2	74
17:07:23.780	From Port 1	Note On	1	D♯2	75
17:07:23.785	From Port 1	Note Off	1	E2	0
17:07:23.789	From Port 1	Note Off	1	C2	0
17:07:23.790	From Port 1	Note Off	1	D2	0
17:07:23.790	From Port 1	Note Off	1	D♯2	0
17:07:23.793	From Port 1	Note Off	1	B1	0
17:07:23.798	From Port 1	Note Off	1	F2	0
17:07:23.806	From Port 1	Note On	1	B0	83
17:07:23.811	From Port 1	Note On	1	C1	72
17:07:23.812	From Port 1	Note On	1	D1	69
17:07:23.817	From Port 1	Note On	1	C♯1	72
17:07:23.819	From Port 1	Note On	1	E1	55
17:07:23.823	From Port 1	Note On	1	D♯1	69
17:07:23.835	From Port 1	Note Off	1	C1	0
17:07:23.835	From Port 1	Note Off	1	D1	0
17:07:23.842	From Port 1	Note Off	1	B0	0
17:07:23.842	From Port 1	Note Off	1	C♯1	0
17:07:23.843	From Port 1	Note Off	1	D♯1	0
17:07:23.844	From Port 1	Note Off	1	E1	0
17:07:23.886	From Port 1	Note On	1	D2	83
17:07:23.890	From Port 1	Note On	1	E2	92
17:07:23.891	From Port 1	Note On	1	C2	71
17:07:23.893	From Port 1	Note On	1	F2	74
17:07:23.896	From Port 1	Note On	1	C♯2	91
17:07:23.901	From Port 1	Note On	1	G2	73
17:07:23.905	From Port 1	Note On	1	F♯2	69
17:07:23.907	From Port 1	Note Off	1	C♯2	0
17:07:23.913	From Port 1	Note Off	1	F♯2	0
17:07:23.916	From Port 1	Note Off	1	E2	0
17:07:23.916	From Port 1	Note Off	1	F2	0
17:07:23.918	From Port 1	Note Off	1	C2	0
17:07:23.922	From Port 1	Note Off	1	G2	0
17:07:23.930	From Port 1	Note Off	1	D2	0
17:07:23.949	From Port 1	Note On	1	F♯1	92
17:07:23.954	From Port 1	Note On	1	D♯1	83
17:07:23.973	From Port 1	Note Off	1	D♯1	0
17:07:23.974	From Port 1	Note Off	1	F♯1	0
17:07:24.021	From Port 1	Note On	1	E2	92
17:07:24.026	From Port 1	Note On	1	G2	77
17:07:24.028	From Port 1	Note On	1	F2	73
17:07:24.029	From Port 1	Note On	1	D2	67
17:07:24.030	From Port 1	Note On	1	A2	81
17:07:24.050	From Port 1	Note Off	1	G2	0
17:07:24.053	From Port 1	Note Off	1	D2	0
17:07:24.055	From Port 1	Note Off	1	F2	0
17:07:24.059	From Port 1	Note Off	1	A2	0
17:07:24.064	From Port 1	Note Off	1	E2	0
17:07:24.089	From Port 1	Note On	1	G♯1	79
17:07:24.093	From Port 1	Note On	1	G1	67
17:07:24.098	From Port 1	Note On	1	E1	30
17:07:24.102	From Port 1	Note On	1	D1	19
17:07:24.110	From Port 1	Note Off	1	D1	0
17:07:24.112	From Port 1	Note Off	1	G1	0
17:07:24.114	From Port 1	Note Off	1	E1	0
17:07:24.115	From Port 1	Note Off	1	G♯1	0
17:07:24.159	From Port 1	Note On	1	F2	68
17:07:24.160	From Port 1	Note On	1	B2	88
17:07:24.161	From Port 1	Note On	1	G2	83
17:07:24.167	From Port 1	Note On	1	A2	57
17:07:24.170	From Port 1	Note On	1	F♯2	74
17:07:24.183	From Port 1	Note Off	1	F♯2	0
17:07:24.188	From Port 1	Note Off	1	B2	0
17:07:24.189	From Port 1	Note On	1	C3	23
17:07:24.193	From Port 1	Note Off	1	A2	0
17:07:24.194	From Port 1	Note Off	1	C3	0
17:07:24.197	From Port 1	Note Off	1	F2	0
17:07:24.203	From Port 1	Note Off	1	G2	0
17:07:24.232	From Port 1	Note On	1	A♯1	71
17:07:24.238	From Port 1	Note On	1	G♯1	69
17:07:24.255	From Port 1	Note Off	1	A♯1	0
17:07:24.262	From Port 1	Note Off	1	G♯1	0
17:07:24.297	From Port 1	Note On	1	G2	83
17:07:24.297	From Port 1	Note On	1	A2	74
17:07:24.299	From Port 1	Note On	1	C3	100
17:07:24.301	From Port 1	Note On	1	B2	71
17:07:24.306	From Port 1	Note On	1	D3	77
17:07:24.308	From Port 1	Note On	1	C♯3	69
17:07:24.309	From Port 1	Note On	1	G♯2	75
17:07:24.319	From Port 1	Note Off	1	G♯2	0
17:07:24.321	From Port 1	Note Off	1	C♯3	0
17:07:24.321	From Port 1	Note Off	1	C3	0
17:07:24.324	From Port 1	Note Off	1	G2	0
17:07:24.325	From Port 1	Note Off	1	B2	0
17:07:24.328	From Port 1	Note Off	1	D3	0
17:07:24.328	From Port 1	Note Off	1	A2	0
17:07:24.364	From Port 1	Note On	1	C♯2	92
17:07:24.369	From Port 1	Note On	1	G1	52
17:07:24.372	From Port 1	Note On	1	A♯1	78
17:07:24.394	From Port 1	Note Off	1	A♯1	0
17:07:24.401	From Port 1	Note Off	1	G1	0
17:07:24.410	From Port 1	Note Off	1	C♯2	0
17:07:24.440	From Port 1	Note On	1	D3	70
17:07:24.443	From Port 1	Note On	1	A2	68
17:07:24.443	From Port 1	Note On	1	B2	68
17:07:24.448	From Port 1	Note On	1	E3	81
17:07:24.449	From Port 1	Note On	1	C3	67
17:07:24.463	From Port 1	Note Off	1	D3	0
17:07:24.465	From Port 1	Note Off	1	A2	0
17:07:24.466	From Port 1	Note Off	1	C3	0
17:07:24.467	From Port 1	Note Off	1	B2	0
17:07:24.472	From Port 1	Note Off	1	E3	0
17:07:24.509	From Port 1	Note On	1	C♯2	75
17:07:24.517	From Port 1	Note On	1	A1	46
17:07:24.517	From Port 1	Note On	1	D♯2	75
17:07:24.531	From Port 1	Note Off	1	C♯2	0
17:07:24.536	From Port 1	Note Off	1	D♯2	0
17:07:24.540	From Port 1	Note Off	1	A1	0
17:07:24.575	From Port 1	Note On	1	E3	87
17:07:24.577	From Port 1	Note On	1	B2	74
17:07:24.579	From Port 1	Note On	1	C3	64
17:07:24.582	From Port 1	Note On	1	D3	67
17:07:24.593	From Port 1	Note On	1	F3	67
17:07:24.605	From Port 1	Note Off	1	D3	0
17:07:24.609	From Port 1	Note Off	1	E3	0
17:07:24.610	From Port 1	Note Off	1	F3	0
17:07:24.611	From Port 1	Note Off	1	C3	0
17:07:24.612	From Port 1	Note Off	1	B2	0
17:07:24.659	From Port 1	Note On	1	C♯2	80
17:07:24.660	From Port 1	Note On	1	B1	57
17:07:24.662	From Port 1	Note On	1	D♯2	76
17:07:24.680	From Port 1	Note Off	1	C♯2	0
17:07:24.681	From Port 1	Note Off	1	D♯2	0
17:07:24.700	From Port 1	Note Off	1	B1	0
17:07:24.738	From Port 1	Note On	1	C3	69
17:07:24.739	From Port 1	Note On	1	F3	74
17:07:24.741	From Port 1	Note On	1	D3	70
17:07:24.767	From Port 1	Note Off	1	D3	0
17:07:24.767	From Port 1	Note Off	1	F3	0
17:07:24.769	From Port 1	Note Off	1	C3	0
17:07:24.802	From Port 1	Note On	1	C2	60
17:07:24.813	From Port 1	Note On	1	D♯2	62
17:07:24.813	From Port 1	Note On	1	F♯2	61
17:07:24.826	From Port 1	Note On	1	G♯2	52
17:07:24.838	From Port 1	Note Off	1	D♯2	0
17:07:24.843	From Port 1	Note Off	1	F♯2	0
17:07:24.844	From Port 1	Note Off	1	C2	0
17:07:24.854	From Port 1	Note Off	1	G♯2	0
17:07:24.894	From Port 1	Note On	1	G3	71
17:07:24.901	From Port 1	Note On	1	F3	68
17:07:24.902	From Port 1	Note On	1	D3	49
17:07:24.903	From Port 1	Note On	1	E3	58
17:07:24.908	From Port 1	Note On	1	C♯3	37
17:07:24.918	From Port 1	Note Off	1	C♯3	0
17:07:24.919	From Port 1	Note Off	1	E3	0
17:07:24.922	From Port 1	Note Off	1	F3	0
17:07:24.923	From Port 1	Note Off	1	D3	0
17:07:24.929	From Port 1	Note Off	1	G3	0
17:07:24.981	From Port 1	Note On	1	D2	3
17:07:25.000	From Port 1	Note Off	1	D2	0
17:07:25.053	From Port 1	Note On	1	E3	63
17:07:25.054	From Port 1	Note On	1	G3	53
17:07:25.056	From Port 1	Note On	1	A3	61
17:07:25.057	From Port 1	Note On	1	D3	37
17:07:25.058	From Port 1	Note On	1	D♯3	52
17:07:25.058	From Port 1	Note On	1	F♯3	58
17:07:25.080	From Port 1	Note Off	1	D3	0
17:07:25.083	From Port 1	Note Off	1	D♯3	0
17:07:25.084	From Port 1	Note Off	1	G3	0
17:07:25.087	From Port 1	Note Off	1	F♯3	0
17:07:25.087	From Port 1	Note Off	1	A3	0
17:07:25.089	From Port 1	Note Off	1	E3	0
17:07:25.120	From Port 1	Note On	1	A♯2	50
17:07:25.134	From Port 1	Note On	1	E2	3
17:07:25.135	From Port 1	Note Off	1	A♯2	0
17:07:25.155	From Port 1	Note Off	1	E2	0
17:07:25.211	From Port 1	Note On	1	F3	57
17:07:25.219	From Port 1	Note On	1	E3	49
17:07:25.219	From Port 1	Note On	1	A3	43
17:07:25.225	From Port 1	Note On	1	G♯3	47
17:07:25.240	From Port 1	Note Off	1	A3	0
17:07:25.243	From Port 1	Note Off	1	G♯3	0
17:07:25.245	From Port 1	Note Off	1	F3	0
17:07:25.246	From Port 1	Note Off	1	E3	0
17:07:25.369	From Port 1	Note On	1	B3	33
17:07:25.376	From Port 1	Note On	1	G3	26
17:07:25.387	From Port 1	Note On	1	F3	4
17:07:25.398	From Port 1	Note Off	1	F3	0
17:07:25.404	From Port 1	Note Off	1	G3	0
17:07:25.410	From Port 1	Note Off	1	B3	0
17:07:25.535	From Port 1	Note On	1	G3	42
17:07:25.535	From Port 1	Note On	1	A3	70
17:07:25.537	From Port 1	Note On	1	C4	55
17:07:25.542	From Port 1	Note On	1	F3	40
17:07:25.573	From Port 1	Note Off	1	A3	0
17:07:25.578	From Port 1	Note Off	1	F3	0
17:07:25.584	From Port 1	Note Off	1	G3	0
17:07:25.593	From Port 1	Note Off	1	C4	0
17:07:25.615	From Port 1	Note On	1	C♯3	68
17:07:25.624	From Port 1	Note On	1	D♯3	66
17:07:25.640	From Port 1	Note On	1	A♯2	31
17:07:25.651	From Port 1	Note Off	1	A♯2	0
17:07:25.673	From Port 1	Note Off	1	C♯3	0
17:07:25.682	From Port 1	Note Off	1	D♯3	0
17:07:25.714	From Port 1	Note On	1	A3	21
17:07:25.759	From Port 1	Note Off	1	A3	0
17:07:25.789	From Port 1	Note On	1	D♯3	64
17:07:25.793	From Port 1	Note On	1	C♯3	59
17:07:25.828	From Port 1	Note Off	1	C♯3	0
17:07:25.841	From Port 1	Note Off	1	D♯3	0
17:07:25.927	From Port 1	Note On	1	E4	3
17:07:25.954	From Port 1	Note On	1	F4	13
17:07:25.993	From Port 1	Note Off	1	E4	0
17:07:26.005	From Port 1	Note Off	1	F4	0
17:07:26.144	From Port 1	Note On	1	F4	85
17:07:26.160	From Port 1	Note On	1	E4	58
17:07:26.165	From Port 1	Note On	1	G4	52
17:07:26.179	From Port 1	Note On	1	D♯3	47
17:07:26.179	From Port 1	Note On	1	F♯4	22
17:07:26.186	From Port 1	Note Off	1	G4	0
17:07:26.198	From Port 1	Note Off	1	E4	0
17:07:26.210	From Port 1	Note Off	1	F♯4	0
17:07:26.217	From Port 1	Note Off	1	D♯3	0
17:07:26.323	From Port 1	Note Off	1	F4	0
17:07:26.353	From Port 1	Note On	1	G3	65
17:07:26.386	From Port 1	Note Off	1	G3	0
17:07:26.401	From Port 1	Note On	1	F♯2	52
17:07:26.405	From Port 1	Note On	1	D♯4	56
17:07:26.410	From Port 1	Note On	1	C♯4	55
17:07:26.412	From Port 1	Note On	1	C♯3	34
17:07:26.423	From Port 1	Note Off	1	C♯3	0
17:07:26.429	From Port 1	Note Off	1	C♯4	0
17:07:26.434	From Port 1	Note Off	1	D♯4	0
17:07:26.451	From Port 1	Note Off	1	F♯2	0
17:07:26.473	From Port 1	Note On	1	F3	81
17:07:26.497	From Port 1	Note Off	1	F3	0
17:07:26.501	From Port 1	Note On	1	E2	4
17:07:26.537	From Port 1	Note On	1	D♯2	72
17:07:26.538	From Port 1	Note On	1	C♯4	47
17:07:26.550	From Port 1	Note On	1	F♯2	58
17:07:26.552	From Port 1	Note On	1	G♯2	71
17:07:26.554	From Port 1	Note On	1	A♯2	31
17:07:26.555	From Port 1	Note Off	1	C♯4	0
17:07:26.555	From Port 1	Note Off	1	E2	0
17:07:26.574	From Port 1	Note Off	1	F♯2	0
17:07:26.576	From Port 1	Note Off	1	G♯2	0
17:07:26.577	From Port 1	Note Off	1	D♯2	0
17:07:26.581	From Port 1	Note Off	1	A♯2	0
17:07:26.650	From Port 1	Note On	1	A♯3	72
17:07:26.650	From Port 1	Note On	1	B3	4
17:07:26.664	From Port 1	Note On	1	F♯3	46
17:07:26.670	From Port 1	Note On	1	G♯3	63
17:07:26.673	From Port 1	Note On	1	F♯2	44
17:07:26.676	From Port 1	Note Off	1	A♯3	0
17:07:26.685	From Port 1	Note On	1	D♯2	63
17:07:26.692	From Port 1	Note On	1	C♯2	67
17:07:26.693	From Port 1	Note Off	1	F♯3	0
17:07:26.693	From Port 1	Note On	1	A3	29
17:07:26.694	From Port 1	Note Off	1	F♯2	0
17:07:26.705	From Port 1	Note Off	1	G♯3	0
17:07:26.715	From Port 1	Note Off	1	B3	0
17:07:26.723	From Port 1	Note On	1	E3	40
17:07:26.723	From Port 1	Note Off	1	C♯2	0
17:07:26.725	From Port 1	Note Off	1	D♯2	0
17:07:26.757	From Port 1	Note On	1	D3	3
17:07:26.762	From Port 1	Note Off	1	D3	0
17:07:26.766	From Port 1	Note On	1	G3	3
17:07:26.767	From Port 1	Note Off	1	E3	0
17:07:26.771	From Port 1	Note On	1	D♯3	78
17:07:26.773	From Port 1	Note On	1	F♯3	78
17:07:26.811	From Port 1	Note Off	1	A3	0
17:07:26.833	From Port 1	Note Off	1	F♯3	0
17:07:26.838	From Port 1	Note Off	1	D♯3	0
17:07:26.839	From Port 1	Note On	1	D3	20
17:07:26.844	From Port 1	Note On	1	C3	52
17:07:26.856	From Port 1	Note On	1	E3	3
17:07:26.862	From Port 1	Note Off	1	E3	0
17:07:26.862	From Port 1	Note Off	1	G3	0
17:07:26.886	From Port 1	Note Off	1	D3	0
17:07:26.892	From Port 1	Note On	1	C♯3	78
17:07:26.899	From Port 1	Note On	1	D♯3	72
17:07:26.901	From Port 1	Note Off	1	C3	0
17:07:26.912	From Port 1	Note On	1	F♯3	82
17:07:26.913	From Port 1	Note On	1	F3	3
17:07:26.937	From Port 1	Note Off	1	F3	0
17:07:26.941	From Port 1	Note Off	1	F♯3	0
17:07:26.955	From Port 1	Note Off	1	C♯3	0
17:07:26.966	From Port 1	Note On	1	B2	3
17:07:26.969	From Port 1	Note Off	1	D♯3	0
17:07:26.970	From Port 1	Note On	1	E3	3
17:07:26.987	From Port 1	Note On	1	A2	21
17:07:26.988	From Port 1	Note Off	1	E3	0
17:07:27.000	From Port 1	Note On	1	D3	3
17:07:27.006	From Port 1	Note On	1	A♯2	60
17:07:27.025	From Port 1	Note On	1	C♯3	69
17:07:27.027	From Port 1	Note Off	1	B2	0
17:07:27.038	From Port 1	Note On	1	G♯2	98
17:07:27.038	From Port 1	Note Off	1	A2	0
17:07:27.073	From Port 1	Note Off	1	D3	0
17:07:27.079	From Port 1	Note Off	1	C♯3	0
17:07:27.083	From Port 1	Note Off	1	G♯2	0
17:07:27.106	From Port 1	Note On	1	A2	3
17:07:27.107	From Port 1	Note On	1	D♯1	18
17:07:27.109	From Port 1	Note Off	1	D♯1	0
17:07:27.120	From Port 1	Note On	1	F2	25
17:07:27.121	From Port 1	Note On	1	G2	3
17:07:27.123	From Port 1	Note Off	1	A♯2	0
17:07:27.137	From Port 1	Note On	1	G♯2	42
17:07:27.140	From Port 1	Note On	1	F♯2	75
17:07:27.142	From Port 1	Note Off	1	F♯2	0
17:07:27.155	From Port 1	Note On	1	D♯2	75
17:07:27.155	From Port 1	Note Off	1	F2	0
17:07:27.180	From Port 1	Note Off	1	G♯2	0
17:07:27.195	From Port 1	Note On	1	C♯2	58
17:07:27.197	From Port 1	Note Off	1	A2	0
17:07:27.214	From Port 1	Note Off	1	C♯2	0
17:07:27.221	From Port 1	Note On	1	E2	3
17:07:27.233	From Port 1	Note Off	1	G2	0
17:07:27.240	From Port 1	Note On	1	D2	3
17:07:27.246	From Port 1	Note On	1	C2	40
17:07:27.270	From Port 1	Note On	1	C♯2	67
17:07:27.275	From Port 1	Note On	1	B1	59
17:07:27.277	From Port 1	Note On	1	A♯1	26
17:07:27.282	From Port 1	Note On	1	F0	12
17:07:27.283	From Port 1	Note Off	1	F0	0
17:07:27.291	From Port 1	Note Off	1	D♯2	0
17:07:27.295	From Port 1	Note On	1	G♯1	71
17:07:27.312	From Port 1	Note Off	1	E2	0
17:07:27.317	From Port 1	Note Off	1	B1	0
17:07:27.324	From Port 1	Note Off	1	G♯1	0
17:07:27.342	From Port 1	Note Off	1	C♯2	0
17:07:27.342	From Port 1	Note Off	1	D2	0
17:07:27.380	From Port 1	Note Off	1	C2	0
17:07:27.385	From Port 1	Note On	1	G1	29
17:07:27.390	From Port 1	Note On	1	E0	41
17:07:27.390	From Port 1	Note On	1	A1	3
17:07:27.401	From Port 1	Note Off	1	A♯1	0
17:07:27.411	From Port 1	Note On	1	F♯1	60
17:07:27.413	From Port 1	Note On	1	F1	3
17:07:27.421	From Port 1	Note Off	1	E0	0
17:07:27.421	From Port 1	Note Off	1	G1	0
17:07:27.431	From Port 1	Note On	1	D♯1	6
17:07:27.434	From Port 1	Note Off	1	A1	0
17:07:27.435	From Port 1	Note On	1	C♯1	63
17:07:27.438	From Port 1	Note Off	1	F1	0
17:07:27.463	From Port 1	Note Off	1	C♯1	0
17:07:27.480	From Port 1	Note Off	1	D♯1	0
17:07:27.487	From Port 1	Note On	1	B0	26
17:07:27.489	From Port 1	Note On	1	A0	77
17:07:27.505	From Port 1	Note On	1	D1	34
17:07:27.524	From Port 1	Note On	1	E1	3
17:07:27.539	From Port 1	Note On	1	A♯0	18
17:07:27.568	From Port 1	Note Off	1	A♯0	0
17:07:27.570	From Port 1	Note Off	1	E1	0
17:07:27.573	From Port 1	Note On	1	D0	31
17:07:27.575	From Port 1	Note Off	1	B0	0
17:07:27.575	From Port 1	Note Off	1	D1	0
17:07:27.581	From Port 1	Note Off	1	A0	0
17:07:27.594	From Port 1	Note On	1	C0	51
17:07:27.634	From Port 1	Note Off	1	C0	0
17:07:27.639	From Port 1	Note Off	1	D0	0
17:07:27.639	From Port 1	Note On	1	C1	55
17:07:27.652	From Port 1	Note Off	1	F♯1	0
17:07:27.653	From Port 1	Note On	1	A♯0	31
17:07:27.668	From Port 1	Note Off	1	C1	0
17:07:27.704	From Port 1	Note Off	1	A♯0	0
17:07:27.754	From Port 1	Note On	1	C1	32
17:07:27.761	From Port 1	Note On	1	D♯1	25
17:07:27.766	From Port 1	Note On	1	E1	34
17:07:27.774	From Port 1	Note On	1	F1	41
17:07:27.776	From Port 1	Note On	1	C0	21
17:07:27.785	From Port 1	Note On	1	F♯0	55
17:07:27.788	From Port 1	Note On	1	C♯0	58
17:07:27.795	From Port 1	Note On	1	D1	3
17:07:27.821	From Port 1	Note On	1	G1	3
17:07:27.822	From Port 1	Note Off	1	C0	0
17:07:27.823	From Port 1	Note Off	1	E1	0
17:07:27.832	From Port 1	Note Off	1	F♯0	0
17:07:27.856	From Port 1	Note Off	1	C♯0	0
17:07:27.863	From Port 1	Note Off	1	C1	0
17:07:27.866	From Port 1	Note On	1	F♯1	5
17:07:27.871	From Port 1	Note Off	1	F1	0
17:07:27.889	From Port 1	Note On	1	A1	3
17:07:27.908	From Port 1	Note Off	1	D1	0
17:07:27.929	From Port 1	Note On	1	B1	55
17:07:27.931	From Port 1	Note Off	1	G1	0
17:07:27.943	From Port 1	Note Off	1	D♯1	0
17:07:27.945	From Port 1	Note On	1	G♯0	17
17:07:27.954	From Port 1	Note Off	1	G♯0	0
17:07:27.968	From Port 1	Note Off	1	A1	0
17:07:27.977	From Port 1	Note On	1	C♯2	10
17:07:27.978	From Port 1	Note On	1	G♯1	3
17:07:27.986	From Port 1	Note On	1	C2	40
17:07:27.990	From Port 1	Note On	1	F0	3
17:07:28.000	From Port 1	Note Off	1	C♯2	0
17:07:28.016	From Port 1	Note Off	1	F♯1	0
17:07:28.016	From Port 1	Note On	1	A♯1	3
17:07:28.019	From Port 1	Note On	1	G0	3
17:07:28.029	From Port 1	Note Off	1	F0	0
17:07:28.053	From Port 1	Note Off	1	G♯1	0
17:07:28.054	From Port 1	Note On	1	A0	3
17:07:28.083	From Port 1	Note On	1	D2	3
17:07:28.090	From Port 1	Note Off	1	B1	0
17:07:28.090	From Port 1	Note Off	1	A♯1	0
17:07:28.101	From Port 1	Note On	1	B0	3
17:07:28.103	From Port 1	Note On	1	D♯2	31
17:07:28.111	From Port 1	Note On	1	E2	3
17:07:28.118	From Port 1	Note Off	1	C2	0
17:07:28.133	From Port 1	Note On	1	F2	3
17:07:28.142	From Port 1	Note On	1	F♯2	3
17:07:28.151	From Port 1	Note Off	1	D2	0
17:07:28.152	From Port 1	Note On	1	A♯0	3
17:07:28.169	From Port 1	Note On	1	G♯2	50
17:07:28.173	From Port 1	Note Off	1	D♯2	0
17:07:28.174	From Port 1	Note On	1	G2	3
17:07:28.180	From Port 1	Note Off	1	E2	0
17:07:28.187	From Port 1	Note On	1	A♯2	3
17:07:28.198	From Port 1	Note On	1	A2	3
17:07:28.200	From Port 1	Note On	1	C♯3	37
17:07:28.209	From Port 1	Note Off	1	C♯3	0
17:07:28.211	From Port 1	Note Off	1	F2	0
17:07:28.214	From Port 1	Note Off	1	F♯2	0
17:07:28.219	From Port 1	Note On	1	B2	3
17:07:28.231	From Port 1	Note On	1	D♯3	43
17:07:28.241	From Port 1	Note On	1	C3	17
17:07:28.246	From Port 1	Note Off	1	G2	0
17:07:28.246	From Port 1	Note Off	1	G♯2	0
17:07:28.247	From Port 1	Note On	1	C1	3
17:07:28.261	From Port 1	Note Off	1	G0	0
17:07:28.261	From Port 1	Note On	1	D3	47
17:07:28.262	From Port 1	Note Off	1	A♯0	0
17:07:28.272	From Port 1	Note Off	1	A2	0
17:07:28.282	From Port 1	Note On	1	D1	3
17:07:28.286	From Port 1	Note On	1	E3	44
17:07:28.286	From Port 1	Note Off	1	A♯2	0
17:07:28.303	From Port 1	Note Off	1	B2	0
17:07:28.303	From Port 1	Note On	1	F♯3	3
17:07:28.318	From Port 1	Note On	1	F3	40
17:07:28.333	From Port 1	Note On	1	E1	21
17:07:28.333	From Port 1	Note Off	1	C3	0
17:07:28.339	From Port 1	Note On	1	F1	3
17:07:28.343	From Port 1	Note On	1	G3	26
17:07:28.352	From Port 1	Note On	1	G♯3	3
17:07:28.359	From Port 1	Note Off	1	D3	0
17:07:28.362	From Port 1	Note Off	1	D♯3	0
17:07:28.381	From Port 1	Note On	1	A3	3
17:07:28.389	From Port 1	Note On	1	A♯3	3
17:07:28.389	From Port 1	Note Off	1	E3	0
17:07:28.403	From Port 1	Note Off	1	F♯3	0
17:07:28.411	From Port 1	Note On	1	B3	41
17:07:28.416	From Port 1	Note Off	1	F3	0
17:07:28.429	From Port 1	Note Off	1	G♯3	0
17:07:28.430	From Port 1	Note Off	1	F1	0
17:07:28.441	From Port 1	Note On	1	C♯4	22
17:07:28.445	From Port 1	Note Off	1	G3	0
17:07:28.445	From Port 1	Note On	1	C4	37
17:07:28.460	From Port 1	Note Off	1	A♯3	0
17:07:28.469	From Port 1	Note On	1	D4	58
17:07:28.475	From Port 1	Note Off	1	A3	0
17:07:28.475	From Port 1	Note Off	1	E1	0
17:07:28.477	From Port 1	Note On	1	D♯4	20
17:07:28.493	From Port 1	Note On	1	E4	61
17:07:28.501	From Port 1	Note Off	1	B3	0
17:07:28.512	From Port 1	Note Off	1	C♯4	0
17:07:28.522	From Port 1	Note On	1	F4	64
17:07:28.534	From Port 1	Note Off	1	C4	0
17:07:28.548	From Port 1	Note Off	1	D♯4	0
17:07:28.551	From Port 1	Note On	1	F♯4	18
17:07:28.551	From Port 1	Note On	1	G4	58
17:07:28.555	From Port 1	Note Off	1	D4	0
17:07:28.578	From Port 1	Note On	1	A4	16
17:07:28.581	From Port 1	Note On	1	G♯4	4
17:07:28.587	From Port 1	Note Off	1	E4	0
17:07:28.588	From Port 1	Note Off	1	A0	0
17:07:28.595	From Port 1	Note Off	1	F♯4	0
17:07:28.604	From Port 1	Note On	1	B4	3
17:07:28.612	From Port 1	Note On	1	A♯4	3
17:07:28.616	From Port 1	Note Off	1	F4	0
17:07:28.625	From Port 1	Note Off	1	G♯4	0
17:07:28.634	From Port 1	Note Off	1	B0	0
17:07:28.634	From Port 1	Note Off	1	C1	0
17:07:28.636	From Port 1	Note On	1	C5	3
17:07:28.645	From Port 1	Note Off	1	G4	0
17:07:28.655	From Port 1	Note Off	1	A♯4	0
17:07:28.655	From Port 1	Note On	1	C♯5	34
17:07:28.664	From Port 1	Note On	1	D5	3
17:07:28.676	From Port 1	Note Off	1	A4	0
17:07:28.689	From Port 1	Note On	1	E5	3
17:07:28.694	From Port 1	Note Off	1	D1	0
17:07:28.700	From Port 1	Note On	1	D♯5	3
17:07:28.710	From Port 1	Note On	1	G5	37
17:07:28.721	From Port 1	Note Off	1	B4	0
17:07:28.749	From Port 1	Note Off	1	G5	0
17:07:28.754	From Port 1	Note Off	1	C♯5	0
17:07:28.757	From Port 1	Note On	1	A5	10
17:07:28.767	From Port 1	Note On	1	F5	3
17:07:28.767	From Port 1	Note On	1	F♯5	28
17:07:28.779	From Port 1	Note Off	1	C5	0
17:07:28.785	From Port 1	Note Off	1	A5	0
17:07:28.809	From Port 1	Note Off	1	D♯5	0
17:07:28.815	From Port 1	Note Off	1	F5	0
17:07:28.826	From Port 1	Note Off	1	F♯5	0
17:07:28.835	From Port 1	Note Off	1	E5	0
17:07:28.836	From Port 1	Note Off	1	D5	0
